<?xml version="1.0" encoding="UTF-8"?>
<!DOCTYPE svg PUBLIC "-//W3C//DTD SVG 1.1//EN" "http://www.w3.org/Graphics/SVG/1.1/DTD/svg11.dtd">
<!-- Creator: CorelDRAW -->
<svg xmlns="http://www.w3.org/2000/svg" xml:space="preserve" width="18.8668mm" height="18.8668mm" version="1.1" style="shape-rendering:geometricPrecision; text-rendering:geometricPrecision; image-rendering:optimizeQuality; fill-rule:evenodd; clip-rule:evenodd"
viewBox="0 0 255.83 255.83"
 xmlns:xlink="http://www.w3.org/1999/xlink">
 <defs>
  <style type="text/css">
   <![CDATA[
    .fil0 {fill:#F29559}
   ]]>
  </style>
 </defs>
 <g id="Layer_x0020_1">
  <metadata id="CorelCorpID_0Corel-Layer"/>
  <path class="fil0" d="M161.28 78.22l13.02 13.32c0.53,0.81 0.37,1.6 0.35,2.74l-0 43.86c0,8.68 0.44,40.59 -0.07,46.48 -1.8,0.49 -91.85,0.49 -93.65,0 -0.61,-6.88 -0.07,-16.36 -0.07,-23.53l-0.01 -67.16c-0.03,-2.9 0.11,-2.01 0.36,-2.39 0.79,-1.1 2.17,-2.13 3.25,-3.21 1.17,-1.17 2.09,-2.09 3.25,-3.26 1.97,-1.97 4.37,-4.83 6.43,-6.51 -0.59,-0.63 0.54,-0.33 -1.31,-0.56l-25.33 0.03 0 120.36 120.85 0 0 -120.36c-4.15,0 -24.71,-0.29 -27.06,0.19zm-34.24 -9.45c7.8,-1.51 9.82,10 2.69,11.76 -8.08,1.99 -10.77,-10.19 -2.69,-11.76zm0.36 -11.33c-6.09,0 -10.43,3.44 -13.03,6.33 -4.75,5.29 -3.57,12.85 -4.64,14.21l-18.61 19.15 73.92 -0.01 -14.22 -14.63c-0.8,-0.8 -4.26,-4.04 -4.63,-4.64 -0.87,-1.43 0.53,-8.59 -4.61,-14.23 -3.72,-4.08 -7.38,-6.19 -14.19,-6.19zm-4.45 107.7c1.34,-1.87 2.67,-4.5 3.77,-6.46 3.4,-6.02 8.1,-13.47 11.96,-18.87 2.05,-2.85 6.8,-9.23 9.09,-11.47 4.13,-4.05 5.48,-5.74 10.33,-10.23l-1.47 -3.76c-5.19,2.16 -19.07,13.18 -24.13,17.9 -2.25,2.1 -10.22,10.5 -11.8,12.8 -2.11,-0.83 -5.69,-3.67 -8.11,-5.15 -1.94,-1.18 -6.35,-3.82 -8.53,-4.44 -0.74,0.56 -1.61,1.58 -2.41,2.26 -0.53,0.45 -0.82,0.66 -1.31,1.09 -0.94,0.82 -0.61,0.28 -1.12,1.36l6.21 6.21c1.85,1.85 4.32,3.96 6.04,5.94 1.05,1.21 1.73,2.14 2.91,3.27 1.31,1.25 7.66,9.05 8.57,9.54zm4.97 -165.14c70.64,0 127.91,57.27 127.91,127.91 0,70.64 -57.27,127.91 -127.91,127.91 -70.64,0 -127.91,-57.27 -127.91,-127.91 0,-70.64 57.27,-127.91 127.91,-127.91zm0 17.3c61.09,0 110.61,49.52 110.61,110.61 0,61.09 -49.52,110.61 -110.61,110.61 -61.09,0 -110.61,-49.52 -110.61,-110.61 0,-61.09 49.52,-110.61 110.61,-110.61z"/>
 </g>
</svg>
