<?xml version="1.0" encoding="UTF-8"?>
<!DOCTYPE svg PUBLIC "-//W3C//DTD SVG 1.1//EN" "http://www.w3.org/Graphics/SVG/1.1/DTD/svg11.dtd">
<!-- Creator: CorelDRAW -->
<svg xmlns="http://www.w3.org/2000/svg" xml:space="preserve" width="18.8668mm" height="18.8668mm" version="1.1" style="shape-rendering:geometricPrecision; text-rendering:geometricPrecision; image-rendering:optimizeQuality; fill-rule:evenodd; clip-rule:evenodd"
viewBox="0 0 439.89 439.89"
 xmlns:xlink="http://www.w3.org/1999/xlink">
 <defs>
  <style type="text/css">
   <![CDATA[
    .fil0 {fill:#F29559}
   ]]>
  </style>
 </defs>
 <g id="Layer_x0020_1">
  <metadata id="CorelCorpID_0Corel-Layer"/>
  <path class="fil0" d="M138.84 169.1l23.81 54.88 -46.81 0c2.83,-5.89 8.9,-21.15 11.47,-27.27 1.97,-4.68 3.77,-8.93 5.77,-13.6l5.76 -14.01zm161.4 -36.32l0.81 0c0.76,3.24 14.98,35.61 17.12,40.98 1,2.51 1.85,4.35 2.88,6.8 0.97,2.32 1.94,5.1 3,7.09l-46.81 0 20.17 -47.62c0.93,-2.11 2.3,-4.94 2.84,-7.25zm-108.54 -5.65c-1.56,0.13 -2.97,0.68 -4.61,1.04 -1.98,0.43 -3.04,0.66 -4.97,1.08l-28.65 6.45c-3.4,0.73 -16.38,3.31 -18.66,4.74 -3.18,2.01 -6.23,11.05 -8.13,15.68 -1.08,2.64 -2.24,5.4 -3.46,8.24l-17.47 41.43c-0.91,2.07 -6.85,15.64 -6.85,16.96 0,12.46 3.54,21.48 12,29.96 11.81,11.83 30.97,15.14 45.57,7.84 14.94,-7.47 23.13,-20.57 23.13,-37.8 0,-1.05 -13.78,-33.77 -16.15,-39.13l-12.9 -30.68c3.26,-0.07 42.11,-9.76 46,-10.09 1.54,2.91 3.77,5 6.39,6.92 1.92,1.41 6.13,4.14 8.94,4.38l0 150.51 -45.6 0c-2.96,0 -6.86,3.9 -6.86,6.86l0 22.6c0,2.96 3.9,6.86 6.86,6.86l107.33 0c2.96,0 6.86,-3.9 6.86,-6.86l0 -22.6c0,-2.96 -3.9,-6.86 -6.86,-6.86l-45.6 0 0 -150.51c3.88,-0.32 11.15,-5.47 13.73,-8.87 13.97,-18.39 -6.78,-10.85 26.54,-18.65 2.68,-0.63 16.74,-3.95 18.64,-3.95l-6.75 15.85c-2.32,5.4 -4.31,10.51 -6.71,15.89 -0.8,1.79 -13.18,30.68 -13.18,32.01 0,12.46 3.54,21.48 12.01,29.96 15.59,15.61 41.11,15.58 56.89,-0.2 8.24,-8.24 11.8,-17.52 11.8,-29.76 0,-1.26 -20.17,-48.82 -22.48,-54.18 -1.68,-3.88 -10.05,-24.74 -11.7,-26.63 -3.73,-4.29 -8.57,-2.54 -13.35,-1.42 -2.15,0.5 -4.69,0.98 -6.95,1.53l-41.15 9.29c-1.64,-7.04 -13.78,-16.14 -23.4,-16.14 -9.57,0 -15.93,1.87 -22.5,8.56 -1.98,2.02 -4.24,5.43 -5.46,8.26 -1.58,3.68 -2.3,6.26 -2.3,11.42zm28.24 -127.14c121.47,0 219.94,98.47 219.94,219.94 0,121.47 -98.47,219.94 -219.94,219.94 -121.47,0 -219.94,-98.47 -219.94,-219.94 0,-121.47 98.47,-219.94 219.94,-219.94zm0 29.75c105.04,0 190.19,85.15 190.19,190.19 0,105.04 -85.15,190.19 -190.19,190.19 -105.04,0 -190.19,-85.15 -190.19,-190.19 0,-105.04 85.15,-190.19 190.19,-190.19z"/>
 </g>
</svg>
