<?xml version="1.0" encoding="UTF-8"?>
<!DOCTYPE svg PUBLIC "-//W3C//DTD SVG 1.1//EN" "http://www.w3.org/Graphics/SVG/1.1/DTD/svg11.dtd">
<!-- Creator: CorelDRAW -->
<svg xmlns="http://www.w3.org/2000/svg" xml:space="preserve" width="3.7401mm" height="2.8051mm" version="1.1" style="shape-rendering:geometricPrecision; text-rendering:geometricPrecision; image-rendering:optimizeQuality; fill-rule:evenodd; clip-rule:evenodd"
viewBox="0 0 12.78 9.59"
 xmlns:xlink="http://www.w3.org/1999/xlink"
 aria-hidden="true"
 focusable="false"
 data-prefix="fas"
 data-icon="envelope"
 role="img">
 <defs>
  <style type="text/css">
   <![CDATA[
    .fil0 {fill:#283845}
   ]]>
  </style>
 </defs>
 <g id="Layer_x0020_1">
  <metadata id="CorelCorpID_0Corel-Layer"/>
  <g id="_105553682972640">
   <path class="fil0" d="M12.54 3.17c0.1,-0.08 0.24,-0.01 0.24,0.12l0 5.11c0,0.66 -0.54,1.2 -1.2,1.2l-10.39 0c-0.66,0 -1.2,-0.54 -1.2,-1.2l0 -5.1c0,-0.12 0.14,-0.19 0.24,-0.12 0.56,0.43 1.3,0.99 3.85,2.84 0.53,0.38 1.42,1.19 2.3,1.19 0.89,0.01 1.8,-0.82 2.3,-1.19 2.55,-1.85 3.29,-2.4 3.84,-2.84l0 0zm-6.15 3.23c0.58,0.01 1.41,-0.73 1.83,-1.03 3.31,-2.4 3.57,-2.61 4.33,-3.21 0.14,-0.11 0.23,-0.29 0.23,-0.47l0 -0.47c0,-0.66 -0.54,-1.2 -1.2,-1.2l-10.39 0c-0.66,0 -1.2,0.54 -1.2,1.2l0 0.47c0,0.18 0.08,0.36 0.23,0.47 0.76,0.6 1.02,0.81 4.33,3.21 0.42,0.3 1.25,1.04 1.83,1.03l0 0z"/>
  </g>
 </g>
</svg>
