<?xml version="1.0" encoding="UTF-8"?>
<!DOCTYPE svg PUBLIC "-//W3C//DTD SVG 1.1//EN" "http://www.w3.org/Graphics/SVG/1.1/DTD/svg11.dtd">
<!-- Creator: CorelDRAW -->
<svg xmlns="http://www.w3.org/2000/svg" xml:space="preserve" width="2.4265mm" height="3.8824mm" version="1.1" style="shape-rendering:geometricPrecision; text-rendering:geometricPrecision; image-rendering:optimizeQuality; fill-rule:evenodd; clip-rule:evenodd"
viewBox="0 0 5.45 8.71"
 xmlns:xlink="http://www.w3.org/1999/xlink"
 aria-hidden="true"
 focusable="false"
 data-prefix="fas"
 data-icon="mobile-alt"
 role="img">
 <defs>
  <style type="text/css">
   <![CDATA[
    .fil0 {fill:#283845}
   ]]>
  </style>
 </defs>
 <g id="Layer_x0020_1">
  <metadata id="CorelCorpID_0Corel-Layer"/>
  <g id="_105553682971264">
   <path class="fil0" d="M4.63 0l-3.81 0c-0.45,0 -0.82,0.37 -0.82,0.82l0 7.08c0,0.45 0.37,0.82 0.82,0.82l3.81 0c0.45,0 0.82,-0.37 0.82,-0.82l0 -7.08c0,-0.45 -0.37,-0.82 -0.82,-0.82zm-1.91 8.17c-0.3,0 -0.54,-0.24 -0.54,-0.54 0,-0.3 0.24,-0.54 0.54,-0.54 0.3,0 0.54,0.24 0.54,0.54 0,0.3 -0.24,0.54 -0.54,0.54zm1.91 -1.84c0,0.11 -0.09,0.2 -0.2,0.2l-3.4 0c-0.11,0 -0.2,-0.09 -0.2,-0.2l0 -5.31c0,-0.11 0.09,-0.2 0.2,-0.2l3.4 0c0.11,0 0.2,0.09 0.2,0.2l0 5.31z"/>
  </g>
 </g>
</svg>
