<?xml version="1.0" encoding="UTF-8"?>
<!DOCTYPE svg PUBLIC "-//W3C//DTD SVG 1.1//EN" "http://www.w3.org/Graphics/SVG/1.1/DTD/svg11.dtd">
<!-- Creator: CorelDRAW -->
<svg xmlns="http://www.w3.org/2000/svg" xml:space="preserve" width="18.8668mm" height="18.8668mm" version="1.1" style="shape-rendering:geometricPrecision; text-rendering:geometricPrecision; image-rendering:optimizeQuality; fill-rule:evenodd; clip-rule:evenodd"
viewBox="0 0 1600.51 1600.51"
 xmlns:xlink="http://www.w3.org/1999/xlink">
 <defs>
  <style type="text/css">
   <![CDATA[
    .fil0 {fill:#F29559}
   ]]>
  </style>
 </defs>
 <g id="Layer_x0020_1">
  <metadata id="CorelCorpID_0Corel-Layer"/>
  <path class="fil0" d="M561.73 587.76l0 216.84c0,20.25 10.11,30.36 30.36,30.36l412 0c20.89,0 23.24,-8.24 30.35,-21.68 -8.26,-35.48 -35.44,-26.05 -78.06,-26.03l-316.59 0 64.01 -66.1c20.44,5.86 64.88,38.67 92.13,53.1l74.95 -111.54c9.27,-12.34 20.74,-25.06 24.8,-40.26 57.55,0 121.43,14.79 121.43,-26.02 0,-31.46 -86.7,-21.68 -125.76,-21.68 -23.76,0 -37.75,31.85 -58.95,62.49 -17.53,25.32 -32.91,47.23 -49.47,71.95 -25.61,-5.96 -57.87,-34.72 -82.41,-47.71l-90.07 87.75c-1,-60.37 6.7,-135.81 -5.34,-187.5 -8.72,-2.04 -43.37,-16.25 -43.37,26.03zm-30.35 -108.42l0 21.68 412 0 0 -34.7 -399 0c-9.99,0 -13,3.02 -13,13.01zm0 516.08l537.77 0 0 -21.68 -537.77 0 0 21.68zm0 69.39l537.77 0 0 -21.68 -537.77 0 0 21.68zm0 -138.79l537.77 0 0 -21.68 -524.76 0c-14.18,0 -13,7.78 -13,21.68zm13 208.18l524.76 0 0 -21.69 -537.77 0c0.31,13.9 -1.42,21.69 13,21.69zm-109.82 -795.73l731.38 0 0 923.57 -731.38 0 0 -923.57zm68.43 74.68l594.5 0 0 774.23 -594.5 0 0 -774.23zm297.26 -413.15c441.97,0 800.25,358.29 800.25,800.25 0,441.97 -358.29,800.25 -800.25,800.25 -441.97,0 -800.25,-358.29 -800.25,-800.25 0,-441.97 358.28,-800.25 800.25,-800.25zm0 108.25c382.18,0 691.99,309.82 691.99,692.01 0,382.18 -309.81,692 -691.99,692 -382.18,0 -692.01,-309.81 -692.01,-692 0,-382.18 309.82,-692.01 692.01,-692.01z"/>
 </g>
</svg>
